<svg width="35px" height="29px" viewBox="143 64 35 29" version="1.1" xmlns="http://www.w3.org/2000/svg" xmlns:xlink="http://www.w3.org/1999/xlink">
    <g id="0189-folder-plus" stroke="none" stroke-width="1" fill="none" fill-rule="evenodd" transform="translate(143.000000, 64.066736)">
        <g id="Group" fill-rule="nonzero" fill="#4AD8B1">
            <path d="M32.375,27.0281543 L2.625,27.0281543 C1.17775,27.0281543 0,25.8491762 0,24.4004171 L0,6.00625652 C0,5.38961418 0.20825,4.50669447 0.483,3.95486966 L1.45075,2.01735141 C1.81125,1.29384776 2.69325,0.74903024 3.5,0.74903024 L15.75,0.74903024 C16.55675,0.74903024 17.437,1.29384776 17.79925,2.01735141 L18.767,3.95486966 C18.8335,4.08976017 19.10125,4.2544317 19.25,4.2544317 L32.375,4.2544317 C33.82225,4.2544317 35,5.4334098 35,6.88216893 L35,24.4004171 C35,25.8491762 33.82225,27.0281543 32.375,27.0281543 Z M3.5,2.50260688 C3.3495,2.50260688 3.0835,2.66727842 3.017,2.80216893 L2.04925,4.73968717 C1.89525,5.04800834 1.75,5.66289885 1.75,6.00800834 L1.75,24.4021689 C1.75,24.8856726 2.142,25.2780813 2.625,25.2780813 L32.375,25.2780813 C32.858,25.2780813 33.25,24.8856726 33.25,24.4021689 L33.25,6.88392075 C33.25,6.4004171 32.858,6.00800834 32.375,6.00800834 L19.25,6.00800834 C18.44325,6.00800834 17.56125,5.46319082 17.20075,4.73968717 L16.233,2.80216893 C16.1665,2.66727842 15.89875,2.50260688 15.75,2.50260688 L3.5,2.50260688 L3.5,2.50260688 Z" id="Shape"></path>
            <path d="M21.875,14.7653806 L17.5,14.7653806 L17.5,10.3858186 C17.5,9.90231491 17.108,9.50990615 16.625,9.50990615 C16.142,9.50990615 15.75,9.90231491 15.75,10.3858186 L15.75,14.7653806 L11.375,14.7653806 C10.892,14.7653806 10.5,15.1577894 10.5,15.641293 C10.5,16.1247967 10.892,16.5172054 11.375,16.5172054 L15.75,16.5172054 L15.75,20.8967675 C15.75,21.3802711 16.142,21.7726799 16.625,21.7726799 C17.108,21.7726799 17.5,21.3802711 17.5,20.8967675 L17.5,16.5172054 L21.875,16.5172054 C22.358,16.5172054 22.75,16.1247967 22.75,15.641293 C22.75,15.1577894 22.358,14.7653806 21.875,14.7653806 Z" id="Shape"></path>
        </g>
    </g>
</svg>