<svg width="25px" height="25px" viewBox="1201 21 25 25" version="1.1" xmlns="http://www.w3.org/2000/svg" xmlns:xlink="http://www.w3.org/1999/xlink">
    <g id="0911-plus-square" stroke="none" stroke-width="1" fill="none" fill-rule="evenodd" transform="translate(1201.000000, 21.000000)">
        <g id="_0911_plus_square" fill-rule="nonzero" fill="#FFFFFF">
            <path d="M22.509375,24.4390625 L1.9296875,24.4390625 C0.864485902,24.4377711 0.00129141577,23.5745766 2.74558154e-16,22.509375 L2.74558154e-16,1.9296875 C0.00129141577,0.864485902 0.864485902,0.00129141577 1.9296875,2.22044605e-16 L22.509375,2.22044605e-16 C23.5745766,0.00129141577 24.4377711,0.864485902 24.4390625,1.9296875 L24.4390625,22.509375 C24.4377711,23.5745766 23.5745766,24.4377711 22.509375,24.4390625 Z M1.9296875,1.2859375 C1.57476412,1.28636797 1.28714922,1.57398287 1.28671875,1.92890625 L1.28671875,22.509375 C1.28714922,22.8642984 1.57476412,23.1519133 1.9296875,23.1523438 L22.509375,23.1523438 C22.8642984,23.1519133 23.1519133,22.8642984 23.1523438,22.509375 L23.1523438,1.9296875 C23.1519133,1.57476412 22.8642984,1.28714922 22.509375,1.28671875 L1.9296875,1.2859375 Z" id="Path_1"></path>
            <path d="M18.6507812,11.5765625 L12.8625,11.5765625 L12.8625,5.78828125 C12.8625,5.43317941 12.5746331,5.1453125 12.2195312,5.1453125 C11.8644294,5.1453125 11.5765625,5.43317941 11.5765625,5.78828125 L11.5765625,11.5765625 L5.78828125,11.5765625 C5.43317941,11.5765625 5.1453125,11.8644294 5.1453125,12.2195312 C5.1453125,12.5746331 5.43317941,12.8625 5.78828125,12.8625 L11.5765625,12.8625 L11.5765625,18.6507812 C11.5765625,19.0058831 11.8644294,19.29375 12.2195312,19.29375 C12.5746331,19.29375 12.8625,19.0058831 12.8625,18.6507813 L12.8625,12.8625 L18.6507812,12.8625 C19.0058831,12.8625 19.29375,12.5746331 19.29375,12.2195312 C19.29375,11.8644294 19.0058831,11.5765625 18.6507812,11.5765625 Z" id="Path_2"></path>
        </g>
    </g>
</svg>