<svg width="25px" height="25px" viewBox="1258 21 25 25" version="1.1" xmlns="http://www.w3.org/2000/svg" xmlns:xlink="http://www.w3.org/1999/xlink">
    <g id="Group-1" stroke="none" stroke-width="1" fill="none" fill-rule="evenodd" transform="translate(1258.000000, 21.000000)">
        <g id="Group_1" fill-rule="nonzero" fill="#FFFFFF">
            <path d="M22.509375,24.4390625 L1.9296875,24.4390625 C0.864485902,24.4377711 0.00129141577,23.5745766 0,22.509375 L0,1.9296875 C0.00129141577,0.864485902 0.864485902,0.00129141577 1.9296875,0 L22.509375,0 C23.5745766,0.00129141577 24.4377711,0.864485902 24.4390625,1.9296875 L24.4390625,22.509375 C24.4377711,23.5745766 23.5745766,24.4377711 22.509375,24.4390625 Z M1.9296875,1.2859375 C1.57476412,1.28636797 1.28714922,1.57398287 1.28671875,1.92890625 L1.28671875,22.509375 C1.28714922,22.8642984 1.57476412,23.1519133 1.9296875,23.1523438 L22.509375,23.1523438 C22.8642984,23.1519133 23.1519133,22.8642984 23.1523437,22.509375 L23.1523437,1.9296875 C23.1519133,1.57476412 22.8642984,1.28714922 22.509375,1.28671875 L1.9296875,1.2859375 Z" id="Path_3"></path>
            <path d="M17.8125,16.484375 C16.9239195,15.8232147 16.40203,14.7794356 16.40625,13.671875 L16.40625,11.328125 C16.4040521,9.4070041 15.1288969,7.71997371 13.28125,7.19375 L13.28125,6.640625 C13.28125,5.99341631 12.7565837,5.46875 12.109375,5.46875 C11.4621663,5.46875 10.9375,5.99341631 10.9375,6.640625 L10.9375,7.19375 C9.09000979,7.72020243 7.81496067,9.40709242 7.8125,11.328125 L7.8125,13.671875 C7.81646957,14.779377 7.29463332,15.8230495 6.40625,16.484375 C6.2717405,16.5852571 6.21687604,16.7608928 6.27004559,16.9204015 C6.32321514,17.0799101 6.47248812,17.1875 6.640625,17.1875 L10.1953125,17.1875 C10.1693715,17.316091 10.1562863,17.4469435 10.15625,17.578125 C10.15625,18.6568062 11.0306938,19.53125 12.109375,19.53125 C13.1880562,19.53125 14.0625,18.6568062 14.0625,17.578125 C14.0624277,17.4469453 14.0493428,17.3160964 14.0234375,17.1875 L17.578125,17.1875 C17.7462619,17.1875 17.8955349,17.0799101 17.9487044,16.9204015 C18.001874,16.7608928 17.9470095,16.5852571 17.8125,16.484375 Z M11.71875,6.640625 C11.71875,6.42488877 11.8936388,6.25 12.109375,6.25 C12.3251112,6.25 12.5,6.42488877 12.5,6.640625 L12.5,7.04921875 C12.3710938,7.0375 12.2414062,7.03125 12.109375,7.03125 C11.9773437,7.03125 11.8476562,7.0375 11.71875,7.04921875 L11.71875,6.640625 Z M13.28125,17.578125 C13.2814377,18.0447152 13.0048111,18.466961 12.5769744,18.653139 C12.1491377,18.8393169 11.6516176,18.7539497 11.3103164,18.4357989 C10.9690152,18.1176481 10.8489698,17.6273391 11.0046875,17.1875 L13.2140625,17.1875 C13.2582561,17.3130061 13.2809704,17.4450657 13.28125,17.578125 L13.28125,17.578125 Z M7.6109375,16.40625 C7.8098784,16.1650705 7.98222907,15.9031394 8.125,15.625 C8.43520296,15.0208159 8.59595017,14.3510359 8.59375,13.671875 L8.59375,11.328125 C8.59375004,9.38649896 10.167749,7.81250007 12.109375,7.81250007 C14.051001,7.81250007 15.625,9.38649896 15.625,11.328125 L15.625,13.671875 C15.6231944,14.3509898 15.7839196,15.0206779 16.09375,15.625 C16.2365819,15.9032835 16.4092082,16.1652353 16.6085937,16.40625 L7.61015625,16.40625 L7.6109375,16.40625 Z" id="_0683_alarm"></path>
        </g>
    </g>
</svg>