<svg width="16px" height="14px" viewBox="43 3 16 14" version="1.1" xmlns="http://www.w3.org/2000/svg" xmlns:xlink="http://www.w3.org/1999/xlink">
    <path d="M43,4 C43,3.44771525 43.4446309,3 44.0008717,3 L57.9991283,3 C58.5518945,3 59,3.44386482 59,4 C59,4.55228475 58.5553691,5 57.9991283,5 L44.0008717,5 C43.4481055,5 43,4.55613518 43,4 Z M43,10 C43,9.44771525 43.4446309,9 44.0008717,9 L57.9991283,9 C58.5518945,9 59,9.44386482 59,10 C59,10.5522847 58.5553691,11 57.9991283,11 L44.0008717,11 C43.4481055,11 43,10.5561352 43,10 Z M43,16 C43,15.4477153 43.4446309,15 44.0008717,15 L57.9991283,15 C58.5518945,15 59,15.4438648 59,16 C59,16.5522847 58.5553691,17 57.9991283,17 L44.0008717,17 C43.4481055,17 43,16.5561352 43,16 Z" id="Rows" stroke="none" fill="#A1A1A5" fill-rule="evenodd"></path>
</svg>