<svg width="14px" height="14px" viewBox="0 3 14 14" version="1.1" xmlns="http://www.w3.org/2000/svg" xmlns:xlink="http://www.w3.org/1999/xlink">
    <path d="M0,3.99980749 C0,3.44762906 0.443716645,3 0.999807492,3 L4.00019251,3 C4.55237094,3 5,3.44371665 5,3.99980749 L5,7.00019251 C5,7.55237094 4.55628335,8 4.00019251,8 L0.999807492,8 C0.447629061,8 0,7.55628335 0,7.00019251 L0,3.99980749 Z M9,3.99980749 C9,3.44762906 9.44371665,3 9.99980749,3 L13.0001925,3 C13.5523709,3 14,3.44371665 14,3.99980749 L14,7.00019251 C14,7.55237094 13.5562834,8 13.0001925,8 L9.99980749,8 C9.44762906,8 9,7.55628335 9,7.00019251 L9,3.99980749 Z M9,12.9998075 C9,12.4476291 9.44371665,12 9.99980749,12 L13.0001925,12 C13.5523709,12 14,12.4437166 14,12.9998075 L14,16.0001925 C14,16.5523709 13.5562834,17 13.0001925,17 L9.99980749,17 C9.44762906,17 9,16.5562834 9,16.0001925 L9,12.9998075 Z M0,12.9998075 C0,12.4476291 0.443716645,12 0.999807492,12 L4.00019251,12 C4.55237094,12 5,12.4437166 5,12.9998075 L5,16.0001925 C5,16.5523709 4.55628335,17 4.00019251,17 L0.999807492,17 C0.447629061,17 0,16.5562834 0,16.0001925 L0,12.9998075 Z" id="Grid" stroke="none" fill="#A1A1A5" fill-rule="evenodd"></path>
</svg>