<svg width="20px" height="20px" viewBox="670 173 20 20" version="1.1" xmlns="http://www.w3.org/2000/svg" xmlns:xlink="http://www.w3.org/1999/xlink">
    <g id="0116-cog-2-copy" stroke="none" stroke-width="1" fill="none" fill-rule="evenodd" transform="translate(670.000000, 173.000000)" fill-opacity="0.754953578">
        <g id="Group" fill-rule="nonzero" fill="#4A4A4A">
            <path d="M13.324,19.402 C13.25,19.402 13.176,19.386 13.108,19.353 C12.985,19.294 12.892,19.188 12.849,19.059 C12.442,17.828 11.297,17.001 10,17.001 C8.703,17.001 7.557,17.828 7.151,19.059 C7.108,19.188 7.015,19.294 6.892,19.353 C6.769,19.412 6.628,19.418 6.501,19.371 C5.459,18.982 4.495,18.424 3.636,17.715 C3.531,17.628 3.466,17.503 3.456,17.368 C3.446,17.233 3.491,17.099 3.581,16.997 C4.443,16.029 4.587,14.625 3.938,13.501 C3.404,12.576 2.407,12.001 1.337,12.001 C1.134,12.001 0.93,12.022 0.732,12.063 C0.599,12.091 0.46,12.063 0.348,11.986 C0.236,11.909 0.16,11.79 0.137,11.656 C0.046,11.11 0,10.554 0,10.002 C0,9.45 0.046,8.894 0.137,8.348 C0.159,8.214 0.235,8.095 0.348,8.018 C0.461,7.941 0.599,7.913 0.732,7.941 C0.93,7.982 1.134,8.003 1.337,8.003 C2.407,8.003 3.404,7.428 3.938,6.503 C4.586,5.38 4.443,3.975 3.581,3.007 C3.491,2.906 3.445,2.772 3.456,2.636 C3.467,2.5 3.531,2.375 3.636,2.289 C4.495,1.579 5.46,1.022 6.501,0.633 C6.628,0.585 6.77,0.592 6.892,0.651 C7.014,0.71 7.108,0.816 7.151,0.945 C7.558,2.176 8.703,3.003 10,3.003 C11.297,3.003 12.443,2.176 12.849,0.945 C12.892,0.816 12.985,0.71 13.108,0.651 C13.231,0.592 13.372,0.586 13.499,0.633 C14.541,1.022 15.505,1.58 16.364,2.289 C16.469,2.376 16.534,2.501 16.544,2.636 C16.554,2.771 16.509,2.905 16.419,3.007 C15.557,3.975 15.413,5.379 16.062,6.503 C16.596,7.429 17.593,8.003 18.663,8.003 C18.866,8.003 19.07,7.982 19.268,7.941 C19.401,7.913 19.54,7.941 19.652,8.018 C19.764,8.095 19.84,8.214 19.863,8.348 C19.954,8.894 20,9.45 20,10.002 C20,10.554 19.954,11.11 19.863,11.656 C19.841,11.79 19.765,11.909 19.652,11.986 C19.539,12.063 19.401,12.091 19.268,12.063 C19.07,12.022 18.866,12.001 18.663,12.001 C17.593,12.001 16.596,12.576 16.062,13.501 C15.414,14.624 15.557,16.029 16.419,16.997 C16.509,17.098 16.555,17.232 16.544,17.368 C16.533,17.504 16.469,17.629 16.364,17.715 C15.505,18.425 14.541,18.982 13.499,19.371 C13.442,19.392 13.383,19.403 13.324,19.403 L13.324,19.402 Z M4.654,17.241 C5.198,17.643 5.782,17.981 6.401,18.251 C7.063,16.886 8.45,16 10,16 C11.55,16 12.937,16.886 13.599,18.251 C14.218,17.981 14.802,17.643 15.346,17.241 C14.495,15.985 14.422,14.342 15.196,13 C15.908,11.766 17.237,11 18.663,11 C18.756,11 18.85,11.003 18.943,11.01 C18.981,10.674 19,10.336 19,10.001 C19,9.666 18.981,9.327 18.943,8.992 C18.85,8.999 18.756,9.002 18.663,9.002 C17.237,9.002 15.908,8.236 15.196,7.002 C14.421,5.66 14.494,4.016 15.346,2.761 C14.802,2.359 14.218,2.021 13.599,1.751 C12.937,3.116 11.55,4.002 10,4.002 C8.45,4.002 7.063,3.116 6.401,1.751 C5.782,2.021 5.198,2.359 4.654,2.761 C5.505,4.017 5.578,5.66 4.804,7.002 C4.092,8.236 2.763,9.002 1.337,9.002 C1.244,9.002 1.15,8.999 1.057,8.992 C1.019,9.328 1,9.666 1,10.001 C1,10.336 1.019,10.675 1.057,11.01 C1.15,11.003 1.244,11 1.337,11 C2.763,11 4.092,11.767 4.804,13 C5.579,14.342 5.506,15.986 4.654,17.241 Z" id="Shape"></path>
            <path d="M10,13 C8.346,13 7,11.654 7,10 C7,8.346 8.346,7 10,7 C11.654,7 13,8.346 13,10 C13,11.654 11.654,13 10,13 Z M10,8 C8.897,8 8,8.897 8,10 C8,11.103 8.897,12 10,12 C11.103,12 12,11.103 12,10 C12,8.897 11.103,8 10,8 Z" id="Shape"></path>
        </g>
    </g>
</svg>