<svg width="29px" height="29px" viewBox="0 0 29 29" version="1.1" xmlns="http://www.w3.org/2000/svg" xmlns:xlink="http://www.w3.org/1999/xlink">
    <defs>
        <rect id="path-1" x="0" y="0" width="28" height="28" rx="14"></rect>
        <mask id="mask-2" maskContentUnits="userSpaceOnUse" maskUnits="objectBoundingBox" x="0" y="0" width="28" height="28" fill="white">
            <use xlink:href="#path-1"></use>
        </mask>
    </defs>
    <g id="Group-2" stroke="none" stroke-width="1" fill="none" fill-rule="evenodd">
        <g id="Check-Icon" stroke="#E6EAEE" stroke-width="2" fill="#FAFBFC">
            <use id="Base" mask="url(#mask-2)" xlink:href="#path-1"></use>
        </g>
        <g id="0859-cross-circle" opacity="0.566745924" transform="translate(9.500000, 9.500000)" stroke-width="0.5" stroke="#848C98" fill="#828A96" fill-rule="nonzero">
            <g id="Group">
                <path d="M9.8325163,8.1261147 L5.7525163,4.5001147 L9.8325163,0.874114703 C10.0385163,0.691114703 10.0575163,0.375114703 9.8745163,0.168114703 C9.6915163,-0.0388852969 9.3755163,-0.0568852969 9.1685163,0.126114703 L5.0005163,3.8311147 L0.832516296,0.126114703 C0.626516296,-0.0568852969 0.310516296,-0.0388852969 0.126516296,0.168114703 C-0.0574837045,0.375114703 -0.0384837045,0.690114703 0.168516296,0.874114703 L4.2485163,4.5001147 L0.168516296,8.1261147 C-0.0374837045,8.3091147 -0.0564837045,8.6251147 0.126516296,8.8321147 C0.225516296,8.9431147 0.362516296,9.0001147 0.500516296,9.0001147 C0.618516296,9.0001147 0.737516296,8.9581147 0.832516296,8.8741147 L5.0005163,5.1691147 L9.1685163,8.8741147 C9.2635163,8.9591147 9.3825163,9.0001147 9.5005163,9.0001147 C9.6385163,9.0001147 9.7755163,8.9431147 9.8745163,8.8321147 C10.0575163,8.6261147 10.0395163,8.3101147 9.8325163,8.1261147 Z" id="Shape"></path>
            </g>
        </g>
    </g>
</svg>