<svg width="21px" height="20px" viewBox="-1 1 21 20" version="1.1" xmlns="http://www.w3.org/2000/svg" xmlns:xlink="http://www.w3.org/1999/xlink">
    <g id="Group-2" stroke="none" stroke-width="1" fill="none" fill-rule="evenodd" transform="translate(-1.000000, 1.000000)">
        <g id="0432-desktop" transform="translate(1.000000, 0.000000)" fill-rule="nonzero" fill="#000000">
            <path d="M18.5,0 L1.5,0 C0.673,0 0,0.673 0,1.5 L0,14.5 C0,15.327 0.673,16 1.5,16 L6.691,16 L6,17.382 C5.842,17.699 5.677,17.924 5.591,18.017 C5.377,18.074 5.219,18.269 5.219,18.5 C5.219,18.776 5.443,19 5.719,19 L14.28,19 C14.556,19 14.78,18.776 14.78,18.5 C14.78,18.268 14.622,18.073 14.408,18.017 C14.322,17.925 14.158,17.699 13.999,17.382 L13.308,16 L18.499,16 C19.326,16 19.999,15.327 19.999,14.5 L19.999,1.5 C19.999,0.673 19.326,0 18.499,0 L18.5,0 Z M1.5,1 L18.5,1 C18.776,1 19,1.224 19,1.5 L19,11 L1,11 L1,1.5 C1,1.224 1.224,1 1.5,1 Z M13.106,17.829 C13.135,17.887 13.165,17.944 13.196,18 L6.806,18 C6.837,17.944 6.867,17.887 6.896,17.829 L7.811,16 L12.193,16 L13.108,17.829 L13.106,17.829 Z M18.5,15 L1.5,15 C1.224,15 1,14.776 1,14.5 L1,12 L19,12 L19,14.5 C19,14.776 18.776,15 18.5,15 Z" id="Shape"></path>
            <path d="M10.5,14 L9.5,14 C9.224,14 9,13.776 9,13.5 C9,13.224 9.224,13 9.5,13 L10.5,13 C10.776,13 11,13.224 11,13.5 C11,13.776 10.776,14 10.5,14 Z" id="Shape"></path>
        </g>
        <g id="0429-tablet-2" transform="translate(0.000000, 9.000000)">
            <g id="Group">
                <rect id="Rectangle" fill="#000000" x="0" y="0" width="8" height="10" rx="1"></rect>
                <path d="M7.25,10 L0.75,10 C0.3365,10 0,9.6635 0,9.25 L0,0.75 C0,0.3365 0.3365,0 0.75,0 L7.25,0 C7.6635,0 8,0.3365 8,0.75 L8,9.25 C8,9.6635 7.6635,10 7.25,10 Z M0.75,0.5 C0.612,0.5 0.5,0.612 0.5,0.75 L0.5,9.25 C0.5,9.388 0.612,9.5 0.75,9.5 L7.25,9.5 C7.388,9.5 7.5,9.388 7.5,9.25 L7.5,0.75 C7.5,0.612 7.388,0.5 7.25,0.5 L0.75,0.5 Z" id="Shape" fill="#000000" fill-rule="nonzero"></path>
                <path d="M4.25,9 L3.75,9 C3.612,9 3.5,8.888 3.5,8.75 C3.5,8.612 3.612,8.5 3.75,8.5 L4.25,8.5 C4.388,8.5 4.5,8.612 4.5,8.75 C4.5,8.888 4.388,9 4.25,9 Z" id="Shape" fill="#FFFFFF" fill-rule="nonzero"></path>
                <rect id="Rectangle-2" fill="#FFFFFF" x="1" y="0.699999809" width="6" height="7.30000019"></rect>
            </g>
        </g>
    </g>
</svg>