<svg width="26px" height="23px" viewBox="22 198 26 23" version="1.1" xmlns="http://www.w3.org/2000/svg" xmlns:xlink="http://www.w3.org/1999/xlink">
    <g id="0187-folder" stroke="none" stroke-width="1" fill="none" fill-rule="evenodd" transform="translate(23.000000, 198.000000)">
        <path d="M23.125,3.62037037 L13.75,3.62037037 C13.6425,3.62037037 13.4525,3.48024074 13.405,3.3654537 L12.71375,1.71669444 C12.45625,1.10101852 11.82625,0.637398148 11.25,0.637398148 L2.5,0.637398148 C1.92375,0.637398148 1.29375,1.10101852 1.03625,1.71669444 L0.345,3.3654537 C0.1475,3.83503704 -1.11022302e-16,4.58487963 -1.11022302e-16,5.11111111 L-1.11022302e-16,20.7638889 C-1.11022302e-16,21.9967315 0.84125,23 1.875,23 L23.125,23 C24.15875,23 25,21.9967315 25,20.7638889 L25,5.85648148 C25,4.62363889 24.15875,3.62037037 23.125,3.62037037 Z M23.75,20.7638889 C23.75,21.1753333 23.47,21.5092593 23.125,21.5092593 L1.875,21.5092593 C1.53,21.5092593 1.25,21.1753333 1.25,20.7638889 L1.25,5.11111111 C1.25,4.81892593 1.35375,4.29418519 1.46375,4.03181481 L2.155,2.38305556 C2.2025,2.26826852 2.39375,2.12813889 2.5,2.12813889 L11.25,2.12813889 C11.3575,2.12813889 11.5475,2.26826852 11.595,2.38305556 L12.28625,4.03181481 C12.54375,4.64749074 13.17375,5.11111111 13.75,5.11111111 L23.125,5.11111111 C23.47,5.11111111 23.75,5.44503704 23.75,5.85648148 L23.75,20.7638889 Z" id="Shape" fill="#6A707D" fill-rule="nonzero"></path>
    </g>
</svg>