<svg width="25px" height="23px" viewBox="23 251 25 23" version="1.1" xmlns="http://www.w3.org/2000/svg" xmlns:xlink="http://www.w3.org/1999/xlink">
    <g id="0509-chart-bars" stroke="none" stroke-width="1" fill="none" fill-rule="evenodd" transform="translate(23.000000, 251.000000)">
        <g id="Group" fill-rule="nonzero" fill="#6A707D">
            <path d="M23.0263158,23 L1.97368421,23 C0.885526316,23 0,22.1853158 0,21.1842105 L0,1.81578947 C0,0.814684211 0.885526316,0 1.97368421,0 L23.0263158,0 C24.1144737,0 25,0.814684211 25,1.81578947 L25,21.1842105 C25,22.1853158 24.1144737,23 23.0263158,23 Z M1.97368421,1.21052632 C1.61052632,1.21052632 1.31578947,1.48168421 1.31578947,1.81578947 L1.31578947,21.1842105 C1.31578947,21.5183158 1.61052632,21.7894737 1.97368421,21.7894737 L23.0263158,21.7894737 C23.3894737,21.7894737 23.6842105,21.5183158 23.6842105,21.1842105 L23.6842105,1.81578947 C23.6842105,1.48168421 23.3894737,1.21052632 23.0263158,1.21052632 L1.97368421,1.21052632 Z" id="Shape"></path>
            <path d="M8.28947368,19.4652632 L5.65789474,19.4652632 C5.29473684,19.4652632 5,19.1941053 5,18.86 L5,7.96526316 C5,7.63115789 5.29473684,7.36 5.65789474,7.36 L8.28947368,7.36 C8.65263158,7.36 8.94736842,7.63115789 8.94736842,7.96526316 L8.94736842,18.86 C8.94736842,19.1941053 8.65263158,19.4652632 8.28947368,19.4652632 Z M6.31578947,18.2547368 L7.63157895,18.2547368 L7.63157895,8.57052632 L6.31578947,8.57052632 L6.31578947,18.2547368 Z" id="Shape"></path>
            <path d="M13.2894737,19.4168421 L10.6578947,19.4168421 C10.2947368,19.4168421 10,19.1456842 10,18.8115789 L10,4.28526316 C10,3.95115789 10.2947368,3.68 10.6578947,3.68 L13.2894737,3.68 C13.6526316,3.68 13.9473684,3.95115789 13.9473684,4.28526316 L13.9473684,18.8115789 C13.9473684,19.1456842 13.6526316,19.4168421 13.2894737,19.4168421 Z M11.3157895,18.2063158 L12.6315789,18.2063158 L12.6315789,4.89052632 L11.3157895,4.89052632 L11.3157895,18.2063158 Z" id="Shape"></path>
            <path d="M18.2894737,19.2231579 L15.6578947,19.2231579 C15.2947368,19.2231579 15,18.952 15,18.6178947 L15,12.5652632 C15,12.2311579 15.2947368,11.96 15.6578947,11.96 L18.2894737,11.96 C18.6526316,11.96 18.9473684,12.2311579 18.9473684,12.5652632 L18.9473684,18.6178947 C18.9473684,18.952 18.6526316,19.2231579 18.2894737,19.2231579 Z M16.3157895,18.0126316 L17.6315789,18.0126316 L17.6315789,13.1705263 L16.3157895,13.1705263 L16.3157895,18.0126316 Z" id="Shape"></path>
        </g>
    </g>
</svg>