<svg width="16px" height="18px" viewBox="37 99 16 18" version="1.1" xmlns="http://www.w3.org/2000/svg" xmlns:xlink="http://www.w3.org/1999/xlink">
    <g id="icon" stroke="none" stroke-width="1" fill="none" fill-rule="evenodd" transform="translate(37.000000, 99.000000)">
        <path d="M8,2.25 C4.278,2.25 2,3.706875 2,4.5 C2,5.293125 4.278,6.75 8,6.75 C11.722,6.75 14,5.293125 14,4.5 C14,3.706875 11.722,2.25 8,2.25 L8,2.25 Z M8,9 C4.024,9 0,7.45425 0,4.5 C0,1.54575 4.024,0 8,0 C11.976,0 16,1.54575 16,4.5 C16,7.45425 11.976,9 8,9 L8,9 Z" id="Fill-176" fill="#6A707D"></path>
        <path d="M8,13.5 C4.024,13.5 0,11.95425 0,9 L0,4.5 C0,3.877875 0.447,3.375 1,3.375 C1.553,3.375 2,3.877875 2,4.5 L2,9 C2,9.793125 4.278,11.25 8,11.25 C11.722,11.25 14,9.793125 14,9 L14,4.5 C14,3.877875 14.447,3.375 15,3.375 C15.553,3.375 16,3.877875 16,4.5 L16,9 C16,11.95425 11.976,13.5 8,13.5" id="Fill-177" fill="#6A707D"></path>
        <path d="M8,18 C4.024,18 0,16.45425 0,13.5 L0,9 C0,8.377875 0.447,7.875 1,7.875 C1.553,7.875 2,8.377875 2,9 L2,13.5 C2,14.293125 4.278,15.75 8,15.75 C11.722,15.75 14,14.293125 14,13.5 L14,9 C14,8.377875 14.447,7.875 15,7.875 C15.553,7.875 16,8.377875 16,9 L16,13.5 C16,16.45425 11.976,18 8,18" id="Fill-178" fill="#6A707D"></path>
    </g>
</svg>


