<svg width="96px" height="24px" viewBox="100 23 96 24" version="1.1" xmlns="http://www.w3.org/2000/svg" xmlns:xlink="http://www.w3.org/1999/xlink">
    <path d="M100.96,23.6 L123.04,23.6 L123.84,31.152 L123.616,31.152 C123.072,26.32 121.44,23.792 115.296,23.792 L115.296,45.776 L118.752,45.776 L118.752,46 L105.248,46 L105.248,45.776 L108.704,45.776 L108.704,23.792 C102.56,23.792 100.928,26.32 100.384,31.152 L100.16,31.152 L100.96,23.6 Z M129.568,37.616 C129.568,42.672 129.6,46.032 132.48,46.032 C135.36,46.032 135.392,42.672 135.392,37.616 C135.392,32.56 135.36,29.2 132.48,29.2 C129.6,29.2 129.568,32.56 129.568,37.616 Z M123.2,37.616 C123.2,32.624 127.264,28.976 132.48,28.976 C137.696,28.976 141.76,32.624 141.76,37.616 C141.76,42.608 137.696,46.256 132.48,46.256 C127.264,46.256 123.2,42.608 123.2,37.616 Z M142.752,46 L142.752,45.776 L146.208,45.776 L146.208,23.824 L142.752,23.824 L142.752,23.6 L154.752,23.6 C162.624,23.6 167.616,27.216 167.616,34.736 C167.616,41.168 163.584,46 156.064,46 L142.752,46 Z M152.8,45.776 L154.944,45.776 C158.592,45.776 160.576,43.6 160.576,34.8 C160.576,26.736 159.84,23.824 153.728,23.824 L152.8,23.824 L152.8,45.776 Z M175.424,37.616 C175.424,42.672 175.456,46.032 178.336,46.032 C181.216,46.032 181.248,42.672 181.248,37.616 C181.248,32.56 181.216,29.2 178.336,29.2 C175.456,29.2 175.424,32.56 175.424,37.616 Z M169.056,37.616 C169.056,32.624 173.12,28.976 178.336,28.976 C183.552,28.976 187.616,32.624 187.616,37.616 C187.616,42.608 183.552,46.256 178.336,46.256 C173.12,46.256 169.056,42.608 169.056,37.616 Z M192.8,40.08 C191.104,40.08 189.728,41.456 189.728,43.152 C189.728,44.848 191.104,46.224 192.8,46.224 C194.464,46.224 195.872,44.88 195.872,43.152 C195.872,41.456 194.496,40.08 192.8,40.08 Z" id="ToDo." stroke="none" fill="#8AB5D1" fill-rule="evenodd"></path>
</svg>