<svg width="17px" height="17px" viewBox="0 2 17 17" version="1.1" xmlns="http://www.w3.org/2000/svg" xmlns:xlink="http://www.w3.org/1999/xlink">
    <g id="icon" stroke="none" stroke-width="1" fill="none" fill-rule="evenodd" transform="translate(0.000000, 2.000000)">
        <path d="M7,2 C4.243,2 2,4.243 2,7 C2,9.757 4.243,12 7,12 C9.757,12 12,9.757 12,7 C12,4.243 9.757,2 7,2 L7,2 Z M7,14 C3.14,14 0,10.86 0,7 C0,3.14 3.14,0 7,0 C10.859,0 14,3.14 14,7 C14,10.86 10.859,14 7,14 L7,14 Z" id="Fill-94" fill="#DEE3EB"></path>
        <path d="M15.00025,16.00025 C14.74425,16.00025 14.48825,15.90225 14.29325,15.70725 L11.29325,12.70725 C10.90225,12.31625 10.90225,11.68425 11.29325,11.29325 C11.68425,10.90225 12.31625,10.90225 12.70725,11.29325 L15.70725,14.29325 C16.09825,14.68425 16.09825,15.31625 15.70725,15.70725 C15.51225,15.90225 15.25625,16.00025 15.00025,16.00025" id="Fill-95" fill="#DEE3EB"></path>
    </g>
</svg>