<svg width="25px" height="26px" viewBox="1315 20 25 26" version="1.1" xmlns="http://www.w3.org/2000/svg" xmlns:xlink="http://www.w3.org/1999/xlink">
    <g id="0116-cog-2" stroke="none" stroke-width="1" fill="none" fill-rule="evenodd" transform="translate(1315.000000, 20.000000)">
        <g id="_0116_cog_2" transform="translate(0.000000, 0.311719)" fill-rule="nonzero" fill="#FFFFFF">
            <path d="M22.509375,24.9085937 L1.9296875,24.9085937 C0.864485902,24.9073023 0.00129141577,24.0441078 0,22.9789062 L0,2.39921875 C0.00129141577,1.33401715 0.864485902,0.470822666 1.9296875,0.46953125 L22.509375,0.46953125 C23.5745766,0.470822666 24.4377711,1.33401715 24.4390625,2.39921875 L24.4390625,22.9789062 C24.4377711,24.0441078 23.5745766,24.9073023 22.509375,24.9085937 Z M1.9296875,1.75546875 C1.57476412,1.75589922 1.28714922,2.04351412 1.28671875,2.3984375 L1.28671875,22.9789062 C1.28714922,23.3338296 1.57476412,23.6214445 1.9296875,23.621875 L22.509375,23.621875 C22.8642984,23.6214445 23.1519133,23.3338296 23.1523438,22.9789063 L23.1523438,2.39921875 C23.1519133,2.04429537 22.8642984,1.75668047 22.509375,1.75625 L1.9296875,1.75546875 Z" id="Path_4"></path>
            <g id="Group_2" transform="translate(5.468750, 5.468750)">
                <path d="M9.36875,13.6890625 C9.31628252,13.6891877 9.26446717,13.6774358 9.2171875,13.6546875 C9.13091108,13.6132633 9.06519761,13.5385248 9.03515625,13.4476562 C8.74989971,12.5832334 7.94230492,11.9993055 7.03203125,11.9993055 C6.12175758,11.9993055 5.31416279,12.5832334 5.02890625,13.4476562 C4.99883858,13.5384135 4.93317984,13.6130554 4.84699825,13.654452 C4.76081666,13.6958486 4.66151236,13.7004454 4.571875,13.6671875 C3.8396204,13.3932325 3.15834587,12.9987271 2.55625,12.5 C2.48268602,12.4393294 2.4369914,12.3513249 2.4296875,12.25625 C2.42254437,12.1610391 2.45408874,12.0669692 2.5171875,11.9953125 C3.12200699,11.3158239 3.22309086,10.325139 2.76796875,9.5375 C2.31260171,8.75105414 1.40473572,8.34465504 0.51484375,8.52890625 C0.421159197,8.54866722 0.323469213,8.52918569 0.24453125,8.475 C0.165216973,8.42033225 0.111613846,8.33569573 0.09609375,8.240625 C-0.0323203097,7.47068221 -0.0323203097,6.68478654 0.09609375,5.91484375 C0.111925361,5.82047492 0.165539012,5.73663639 0.244561271,5.68267716 C0.323583531,5.62871793 0.421186228,5.60930052 0.51484375,5.62890625 C1.40546648,5.81319021 2.31392572,5.40587911 2.76882197,4.61832667 C3.22371822,3.83077424 3.12261257,2.84033082 2.51796875,2.1609375 C2.45446398,2.08967029 2.42266886,1.9956436 2.4298886,1.90046091 C2.43710834,1.80527821 2.48272221,1.7171231 2.55625,1.65625 C3.15825844,1.15859646 3.83926969,0.76514676 4.57109375,0.4921875 C4.65991164,0.459193857 4.75832354,0.463705577 4.84375,0.5046875 C4.92986071,0.546329966 4.99550218,0.620986581 5.02578125,0.71171875 C5.31182167,1.57637848 6.12050631,2.15981593 7.03125,2.15859375 C7.9411309,2.15880406 8.74860501,1.57555833 9.034375,0.71171875 C9.06444267,0.620961482 9.13010141,0.546319639 9.216283,0.504923014 C9.30246459,0.463526389 9.40176889,0.458929572 9.49140625,0.4921875 C10.2228989,0.765344722 10.9036215,1.15878019 11.5054687,1.65625 C11.5790327,1.71692064 11.6247273,1.80492509 11.6320312,1.9 C11.6391744,1.99521092 11.60763,2.08928075 11.5445312,2.1609375 C10.9385326,2.84018675 10.8366249,3.83155839 11.2917644,4.61988696 C11.7469039,5.40821552 12.656409,5.81565054 13.5476562,5.63046875 C13.6413408,5.61070778 13.7390308,5.63018931 13.8179687,5.684375 C13.897283,5.73904275 13.9508862,5.82367927 13.9664062,5.91875 C14.0948203,6.68869279 14.0948203,7.47458846 13.9664062,8.24453125 C13.9505587,8.33873362 13.8970596,8.42243135 13.8182176,8.47636811 C13.7393756,8.53030487 13.6419796,8.54983628 13.5484375,8.53046875 C12.6571903,8.34528696 11.7476852,8.75272198 11.2925457,9.54105054 C10.8374062,10.3293791 10.9393139,11.3207507 11.5453125,12 C11.6087262,12.0713683 11.6403876,12.1654576 11.6330202,12.260644 C11.6256529,12.3558303 11.5798903,12.4439271 11.50625,12.5046875 C10.9045792,13.0024112 10.223812,13.3958725 9.4921875,13.66875 C9.452711,13.6835631 9.41091389,13.6912348 9.36875,13.6914062 L9.36875,13.6890625 Z M3.275,12.1695312 C3.65636079,12.4516899 4.068342,12.6899157 4.503125,12.8796875 C4.97339133,11.9102832 5.95614533,11.2947396 7.03359375,11.2947396 C8.11104217,11.2947396 9.09379617,11.9102832 9.5640625,12.8796875 C9.9988455,12.6899157 10.4108267,12.4516899 10.7921875,12.1695312 C10.2088234,11.3070975 10.1496537,10.1929403 10.6383912,9.27357031 C11.1271288,8.35420029 12.0837967,7.78006292 13.125,7.78125 C13.190625,7.78125 13.25625,7.78125 13.321875,7.78828125 C13.3753016,7.31687352 13.3753016,6.84093898 13.321875,6.36953125 C13.25625,6.37421875 13.190625,6.3765625 13.125,6.3765625 C12.083937,6.37746004 11.1275338,5.80321044 10.6389898,4.88389666 C10.1504458,3.96458288 10.2096837,2.8505988 10.7929687,1.98828125 C10.4116043,1.70612812 9.99962374,1.46790272 9.56484375,1.278125 C9.09457742,2.24752928 8.11182342,2.8630729 7.034375,2.8630729 C5.95692658,2.8630729 4.97417258,2.24752928 4.50390625,1.278125 C4.06912325,1.46789678 3.65714204,1.70612255 3.27578125,1.98828125 C3.87879482,2.88017408 3.91974656,4.03804664 3.38125,4.9703125 C2.87711254,5.8396488 1.94868708,6.37527887 0.94375,6.3765625 C0.878125,6.3765625 0.8125,6.3765625 0.746875,6.36953125 C0.693448429,6.84093898 0.693448429,7.31687352 0.746875,7.78828125 C0.8125,7.78359375 0.878125,7.78125 0.94375,7.78125 C1.94860122,7.78285336 2.87687872,8.31839808 3.38125,9.1875 C3.9214524,10.1193401 3.88046632,11.2781837 3.27578125,12.1695312 L3.275,12.1695312 Z" id="Path_10"></path>
                <path d="M7.03125,9.1875 C5.86627436,9.1875 4.921875,8.24310064 4.921875,7.078125 C4.921875,5.91314936 5.86627436,4.96875 7.03125,4.96875 C8.19622564,4.96875 9.140625,5.91314936 9.140625,7.078125 C9.140625,8.24310064 8.19622564,9.1875 7.03125,9.1875 Z M7.03125,5.671875 C6.25459957,5.671875 5.625,6.30147457 5.625,7.078125 C5.625,7.85477543 6.25459957,8.484375 7.03125,8.484375 C7.80790043,8.484375 8.4375,7.85477543 8.4375,7.078125 C8.4375,6.70516431 8.28934194,6.34747912 8.02561891,6.08375609 C7.76189588,5.82003306 7.40421069,5.671875 7.03125,5.671875 L7.03125,5.671875 Z" id="Path_11"></path>
            </g>
        </g>
    </g>
</svg>